<svg width="105" height="59" viewBox="0 0 105 59" fill="none" xmlns="http://www.w3.org/2000/svg">
<path d="M0.936 34V33.028H2.772V9.772H0.936V8.8H7.452C7.992 8.8 8.55 8.914 9.126 9.142C9.714 9.37 10.254 9.748 10.746 10.276C11.25 10.804 11.658 11.518 11.97 12.418C12.282 13.306 12.438 14.41 12.438 15.73C12.438 17.086 12.276 18.268 11.952 19.276C11.64 20.284 11.232 21.118 10.728 21.778C10.224 22.438 9.678 22.93 9.09 23.254C8.514 23.578 7.968 23.74 7.452 23.74H5.454V33.028H7.29V34H0.936ZM5.454 22.768H6.786C7.266 22.768 7.722 22.498 8.154 21.958C8.586 21.406 8.934 20.608 9.198 19.564C9.474 18.508 9.612 17.224 9.612 15.712C9.612 14.284 9.486 13.138 9.234 12.274C8.994 11.398 8.67 10.762 8.262 10.366C7.854 9.97 7.404 9.772 6.912 9.772H5.454V22.768ZM18.9608 34.486C18.4448 34.486 18.0068 34.414 17.6468 34.27C17.2868 34.138 16.9808 33.982 16.7288 33.802C16.4888 33.61 16.2788 33.448 16.0988 33.316C15.9308 33.172 15.7748 33.1 15.6308 33.1C15.3788 33.1 15.2528 33.4 15.2528 34H14.3888V28.51H15.3608C15.3848 28.87 15.4508 29.272 15.5588 29.716C15.6788 30.16 15.8408 30.604 16.0448 31.048C16.2488 31.48 16.4948 31.882 16.7828 32.254C17.0708 32.614 17.3948 32.908 17.7548 33.136C18.1268 33.352 18.5348 33.46 18.9788 33.46C19.6028 33.46 20.0768 33.304 20.4008 32.992C20.7368 32.668 20.9648 32.23 21.0848 31.678C21.2168 31.114 21.2828 30.472 21.2828 29.752C21.2828 28.924 21.1208 28.09 20.7968 27.25C20.4728 26.41 20.0408 25.564 19.5008 24.712C18.9608 23.86 18.3728 23.014 17.7368 22.174C16.8368 20.962 16.1408 19.876 15.6488 18.916C15.1688 17.944 14.8388 17.044 14.6588 16.216C14.4788 15.388 14.3888 14.59 14.3888 13.822C14.3888 12.658 14.5748 11.674 14.9468 10.87C15.3308 10.066 15.8408 9.454 16.4768 9.034C17.1128 8.614 17.8028 8.404 18.5468 8.404C19.1588 8.404 19.6388 8.506 19.9868 8.71C20.3468 8.902 20.6288 9.1 20.8328 9.304C21.0488 9.496 21.2408 9.592 21.4088 9.592C21.5408 9.592 21.6368 9.538 21.6968 9.43C21.7688 9.31 21.8108 9.1 21.8228 8.8H22.6688V14.236H21.7148C21.6788 13.768 21.5948 13.258 21.4628 12.706C21.3308 12.142 21.1328 11.614 20.8688 11.122C20.6168 10.618 20.2988 10.21 19.9148 9.898C19.5428 9.574 19.0988 9.412 18.5828 9.412C17.9228 9.412 17.3828 9.67 16.9628 10.186C16.5548 10.702 16.3508 11.47 16.3508 12.49C16.3508 13.174 16.4468 13.858 16.6388 14.542C16.8428 15.214 17.1788 15.952 17.6468 16.756C18.1148 17.56 18.7448 18.49 19.5368 19.546C20.2688 20.47 20.9168 21.412 21.4808 22.372C22.0568 23.332 22.5068 24.322 22.8308 25.342C23.1668 26.35 23.3348 27.394 23.3348 28.474C23.3348 29.482 23.2268 30.364 23.0108 31.12C22.7948 31.876 22.4888 32.506 22.0928 33.01C21.7088 33.502 21.2468 33.868 20.7068 34.108C20.1788 34.36 19.5968 34.486 18.9608 34.486ZM25.1407 34V33.028H26.7967V9.772H25.1407V8.8H30.7027C31.8427 8.8 32.8867 9.256 33.8347 10.168C34.7827 11.068 35.5387 12.436 36.1027 14.272C36.6787 16.108 36.9667 18.418 36.9667 21.202C36.9667 24.01 36.6787 26.368 36.1027 28.276C35.5267 30.172 34.7647 31.6 33.8167 32.56C32.8687 33.52 31.8307 34 30.7027 34H25.1407ZM29.5147 33.028H30.3247C31.0087 33.028 31.6447 32.614 32.2327 31.786C32.8207 30.958 33.2947 29.674 33.6547 27.934C34.0267 26.182 34.2127 23.938 34.2127 21.202C34.2127 18.778 34.0447 16.72 33.7087 15.028C33.3727 13.324 32.9407 12.022 32.4127 11.122C31.8967 10.222 31.3507 9.772 30.7747 9.772H29.5147V33.028ZM40.7219 34.414C40.2059 34.414 39.7679 34.228 39.4079 33.856C39.0479 33.484 38.8679 33.04 38.8679 32.524C38.8679 31.996 39.0479 31.552 39.4079 31.192C39.7679 30.832 40.2059 30.652 40.7219 30.652C41.2379 30.652 41.6759 30.832 42.0359 31.192C42.4079 31.552 42.5939 31.996 42.5939 32.524C42.5939 33.04 42.4079 33.484 42.0359 33.856C41.6759 34.228 41.2379 34.414 40.7219 34.414ZM44.7629 34V33.028H46.4729V9.772H44.7629V8.8H50.9009V9.772H49.1729V33.028H50.9009V34H44.7629ZM52.6973 34V33.028H54.3533V9.772H52.6973V8.8H57.5393L63.1733 27.952H63.0293V9.772H61.3913V8.8H65.6213V9.772H64.0193V34H62.1833L55.1993 10.6H55.3433V33.028H57.1433V34H52.6973ZM68.9524 34.414C68.4364 34.414 67.9984 34.228 67.6384 33.856C67.2784 33.484 67.0984 33.04 67.0984 32.524C67.0984 31.996 67.2784 31.552 67.6384 31.192C67.9984 30.832 68.4364 30.652 68.9524 30.652C69.4684 30.652 69.9064 30.832 70.2664 31.192C70.6384 31.552 70.8244 31.996 70.8244 32.524C70.8244 33.04 70.6384 33.484 70.2664 33.856C69.9064 34.228 69.4684 34.414 68.9524 34.414ZM78.7534 34.432C78.2374 34.432 77.7094 34.348 77.1694 34.18C76.6414 34.012 76.1554 33.712 75.7114 33.28C75.2674 32.836 74.9074 32.224 74.6314 31.444C74.3674 30.664 74.2354 29.668 74.2354 28.456V9.772H72.5074V8.8H78.6994V9.772H76.9534V28.42C76.9534 30.172 77.1634 31.42 77.5834 32.164C78.0034 32.908 78.5914 33.28 79.3474 33.28C79.6834 33.28 80.0014 33.214 80.3014 33.082C80.6134 32.938 80.8894 32.704 81.1294 32.38C81.3814 32.056 81.5734 31.612 81.7054 31.048C81.8494 30.472 81.9214 29.746 81.9214 28.87V9.772H80.3914V8.8H84.6034V9.772H82.9114V28.978C82.9114 30.394 82.7254 31.498 82.3534 32.29C81.9814 33.082 81.4834 33.64 80.8594 33.964C80.2354 34.276 79.5334 34.432 78.7534 34.432ZM84.3595 34V33.028H85.8535L89.3275 8.746H90.8935L94.5655 33.028H96.2575V34H90.1015V33.028H91.6495L89.2735 15.064H89.3095L86.8795 33.028H88.2475V34H84.3595ZM87.1495 28.276V27.34H91.4695V28.276H87.1495Z" fill="#494949"/>
<path d="M0.468 53V52.28H1.572V36.92H0.528V36.2H3.996L5.964 48.428H5.748L7.956 36.2H11.256V36.92H10.212V52.28H11.34V53H7.296V52.28H8.412V36.968H8.604L5.664 52.268H4.8L2.148 36.776L2.292 36.788V52.28H3.384V53H0.468ZM15.6902 53.264C15.2422 53.264 14.8182 53.12 14.4182 52.832C14.0262 52.544 13.6742 52.12 13.3622 51.56C13.0502 51 12.8062 50.312 12.6302 49.496C12.4542 48.68 12.3662 47.74 12.3662 46.676C12.3662 45.516 12.4582 44.532 12.6422 43.724C12.8342 42.916 13.0862 42.264 13.3982 41.768C13.7182 41.264 14.0742 40.9 14.4662 40.676C14.8662 40.444 15.2742 40.328 15.6902 40.328C16.0982 40.328 16.4982 40.444 16.8902 40.676C17.2902 40.9 17.6462 41.264 17.9582 41.768C18.2782 42.264 18.5342 42.916 18.7262 43.724C18.9182 44.532 19.0142 45.516 19.0142 46.676C19.0142 47.74 18.9222 48.68 18.7382 49.496C18.5622 50.312 18.3182 51 18.0062 51.56C17.6942 52.12 17.3382 52.544 16.9382 52.832C16.5382 53.12 16.1222 53.264 15.6902 53.264ZM15.6902 52.508C16.1222 52.508 16.4742 52.032 16.7462 51.08C17.0182 50.128 17.1542 48.66 17.1542 46.676C17.1542 44.716 17.0182 43.296 16.7462 42.416C16.4742 41.528 16.1222 41.084 15.6902 41.084C15.2502 41.084 14.8902 41.528 14.6102 42.416C14.3382 43.296 14.2022 44.716 14.2022 46.676C14.2022 48.66 14.3382 50.128 14.6102 51.08C14.8902 52.032 15.2502 52.508 15.6902 52.508ZM24.2537 53.24C23.8777 53.24 23.5737 53.14 23.3417 52.94C23.1097 52.732 22.9337 52.492 22.8137 52.22C22.7017 51.94 22.6337 51.704 22.6097 51.512L22.5017 53H19.6457V52.28H20.8817V35.72H19.6457V35H22.7057V41.816C22.7457 41.68 22.8217 41.496 22.9337 41.264C23.0537 41.024 23.2337 40.812 23.4737 40.628C23.7137 40.436 24.0257 40.34 24.4097 40.34C24.9217 40.34 25.3857 40.556 25.8017 40.988C26.2177 41.42 26.5457 42.108 26.7857 43.052C27.0337 43.996 27.1577 45.24 27.1577 46.784C27.1577 48.368 27.0257 49.632 26.7617 50.576C26.5057 51.52 26.1577 52.2 25.7177 52.616C25.2777 53.032 24.7897 53.24 24.2537 53.24ZM23.9657 52.184C24.2137 52.184 24.4217 52.068 24.5897 51.836C24.7577 51.596 24.8937 51.248 24.9977 50.792C25.1097 50.336 25.1897 49.776 25.2377 49.112C25.2937 48.448 25.3217 47.688 25.3217 46.832C25.3217 46.056 25.2977 45.344 25.2497 44.696C25.2097 44.048 25.1377 43.488 25.0337 43.016C24.9377 42.536 24.8057 42.164 24.6377 41.9C24.4697 41.636 24.2617 41.504 24.0137 41.504C23.7737 41.504 23.5577 41.628 23.3657 41.876C23.1817 42.116 23.0337 42.42 22.9217 42.788C22.8177 43.148 22.7457 43.508 22.7057 43.868V48.968C22.7297 49.464 22.7937 49.96 22.8977 50.456C23.0017 50.952 23.1457 51.364 23.3297 51.692C23.5137 52.02 23.7257 52.184 23.9657 52.184ZM28.3689 53V52.28H29.6049V41.156H28.3689V40.436H31.4049V52.28H32.6649V53H28.3689ZM30.4929 38.168C30.1169 38.168 29.8009 38.04 29.5449 37.784C29.2889 37.528 29.1609 37.216 29.1609 36.848C29.1609 36.48 29.2889 36.168 29.5449 35.912C29.8009 35.656 30.1169 35.528 30.4929 35.528C30.8449 35.528 31.1489 35.656 31.4049 35.912C31.6609 36.168 31.7889 36.48 31.7889 36.848C31.7889 37.216 31.6609 37.528 31.4049 37.784C31.1489 38.04 30.8449 38.168 30.4929 38.168ZM33.492 53V52.28H34.632V35.72H33.492V35H36.408V52.28H37.56V53H33.492ZM41.9631 53.252C41.3791 53.252 40.8791 53.08 40.4631 52.736C40.0471 52.384 39.7031 51.904 39.4311 51.296C39.1671 50.688 38.9711 49.992 38.8431 49.208C38.7231 48.416 38.6631 47.576 38.6631 46.688C38.6631 45.616 38.7511 44.68 38.9271 43.88C39.1031 43.08 39.3471 42.42 39.6591 41.9C39.9711 41.372 40.3191 40.98 40.7031 40.724C41.0951 40.46 41.5031 40.328 41.9271 40.328C42.4311 40.328 42.8671 40.48 43.2351 40.784C43.6031 41.08 43.9071 41.484 44.1471 41.996C44.3951 42.5 44.5791 43.076 44.6991 43.724C44.8191 44.364 44.8791 45.028 44.8791 45.716C44.8791 45.876 44.8751 46.036 44.8671 46.196C44.8671 46.356 44.8631 46.516 44.8551 46.676H40.3311V45.944H43.1031C43.1031 44.92 43.0671 44.044 42.9951 43.316C42.9231 42.58 42.8031 42.02 42.6351 41.636C42.4671 41.244 42.2311 41.048 41.9271 41.048C41.6391 41.048 41.3871 41.24 41.1711 41.624C40.9551 42.008 40.7871 42.592 40.6671 43.376C40.5551 44.16 40.4991 45.152 40.4991 46.352C40.4991 47.224 40.5191 48.032 40.5591 48.776C40.6071 49.512 40.6911 50.16 40.8111 50.72C40.9311 51.272 41.0991 51.7 41.3151 52.004C41.5311 52.308 41.8111 52.46 42.1551 52.46C42.6671 52.46 43.0671 52.316 43.3551 52.028C43.6431 51.732 43.8431 51.44 43.9551 51.152L44.5791 51.512C44.4271 51.968 44.1151 52.372 43.6431 52.724C43.1711 53.076 42.6111 53.252 41.9631 53.252ZM53.9702 53.24C53.2342 53.24 52.5702 52.916 51.9782 52.268C51.3942 51.612 50.9302 50.644 50.5862 49.364C50.2422 48.084 50.0702 46.504 50.0702 44.624C50.0702 42.744 50.2702 41.16 50.6702 39.872C51.0702 38.584 51.5822 37.612 52.2062 36.956C52.8382 36.292 53.4942 35.96 54.1742 35.96C54.7182 35.96 55.1742 36.108 55.5422 36.404C55.9102 36.7 56.1862 37.084 56.3702 37.556C56.5622 38.028 56.6582 38.536 56.6582 39.08C56.6582 39.488 56.5862 39.792 56.4422 39.992C56.2982 40.192 56.0942 40.292 55.8302 40.292C55.5582 40.292 55.3502 40.192 55.2062 39.992C55.0702 39.792 55.0022 39.532 55.0022 39.212C55.0022 39.004 55.0382 38.828 55.1102 38.684C55.1822 38.532 55.2542 38.376 55.3262 38.216C55.3982 38.056 55.4342 37.856 55.4342 37.616C55.4342 37.384 55.3302 37.168 55.1222 36.968C54.9222 36.768 54.6622 36.668 54.3422 36.668C53.9182 36.668 53.5542 36.916 53.2502 37.412C52.9462 37.908 52.6942 38.556 52.4942 39.356C52.3022 40.156 52.1582 41.02 52.0622 41.948C51.9742 42.876 51.9302 43.768 51.9302 44.624C51.9302 45.84 51.9822 46.936 52.0862 47.912C52.1982 48.88 52.3462 49.708 52.5302 50.396C52.7222 51.076 52.9422 51.6 53.1902 51.968C53.4462 52.328 53.7222 52.508 54.0182 52.508C54.2342 52.508 54.4182 52.472 54.5702 52.4C54.7222 52.32 54.8342 52.24 54.9062 52.16V46.124H53.8862V45.404H57.6302V46.124H56.5862V53H55.9142C55.9062 52.984 55.8702 52.956 55.8062 52.916C55.7502 52.876 55.6702 52.856 55.5662 52.856C55.4462 52.856 55.3182 52.888 55.1822 52.952C55.0462 53.016 54.8822 53.08 54.6902 53.144C54.4982 53.208 54.2582 53.24 53.9702 53.24ZM61.2227 53.252C60.7507 53.252 60.3227 53.136 59.9387 52.904C59.5627 52.664 59.2627 52.316 59.0387 51.86C58.8227 51.396 58.7147 50.824 58.7147 50.144C58.7147 49.392 58.8587 48.772 59.1467 48.284C59.4347 47.788 59.7907 47.372 60.2147 47.036C60.6467 46.692 61.0747 46.384 61.4987 46.112C61.9307 45.84 62.2907 45.556 62.5787 45.26C62.8667 44.956 63.0107 44.592 63.0107 44.168C63.0107 43.568 62.9627 43.04 62.8667 42.584C62.7787 42.12 62.6307 41.76 62.4227 41.504C62.2227 41.248 61.9467 41.12 61.5947 41.12C61.1947 41.12 60.8627 41.252 60.5987 41.516C60.3347 41.78 60.2027 42.084 60.2027 42.428C60.2027 42.612 60.2307 42.764 60.2867 42.884C60.3427 42.996 60.3947 43.116 60.4427 43.244C60.4987 43.364 60.5267 43.524 60.5267 43.724C60.5267 44.004 60.4587 44.236 60.3227 44.42C60.1867 44.596 59.9907 44.684 59.7347 44.684C59.4867 44.684 59.2947 44.576 59.1587 44.36C59.0227 44.144 58.9547 43.844 58.9547 43.46C58.9547 42.876 59.0747 42.348 59.3147 41.876C59.5627 41.396 59.9067 41.02 60.3467 40.748C60.7867 40.468 61.2987 40.328 61.8827 40.328C62.4667 40.328 62.9747 40.464 63.4067 40.736C63.8467 41 64.1907 41.428 64.4387 42.02C64.6867 42.604 64.8107 43.372 64.8107 44.324V51.44C64.8107 51.776 64.8467 52.004 64.9187 52.124C64.9987 52.244 65.1107 52.304 65.2547 52.304C65.3747 52.304 65.4787 52.276 65.5667 52.22C65.6627 52.164 65.7307 52.112 65.7707 52.064L66.1547 52.676C66.0507 52.788 65.8667 52.896 65.6027 53C65.3467 53.104 65.0467 53.156 64.7027 53.156C64.3827 53.156 64.1107 53.104 63.8867 53C63.6707 52.896 63.5027 52.756 63.3827 52.58C63.2627 52.396 63.1947 52.192 63.1787 51.968C63.1307 52.104 63.0347 52.276 62.8907 52.484C62.7547 52.684 62.5507 52.86 62.2787 53.012C62.0067 53.172 61.6547 53.252 61.2227 53.252ZM61.7147 52.28C61.9947 52.28 62.2307 52.172 62.4227 51.956C62.6147 51.74 62.7587 51.484 62.8547 51.188C62.9587 50.884 63.0107 50.612 63.0107 50.372V45.656C62.9867 45.88 62.8507 46.104 62.6027 46.328C62.3547 46.552 62.0747 46.812 61.7627 47.108C61.4507 47.404 61.1747 47.78 60.9347 48.236C60.7027 48.692 60.5867 49.264 60.5867 49.952C60.5867 50.704 60.6827 51.28 60.8747 51.68C61.0667 52.08 61.3467 52.28 61.7147 52.28ZM66.5018 53V52.28H67.6298V41.156H66.5018V40.436H69.3938V41.888C69.4178 41.736 69.5058 41.536 69.6578 41.288C69.8098 41.04 70.0338 40.82 70.3298 40.628C70.6258 40.436 70.9938 40.34 71.4338 40.34C71.8818 40.34 72.2418 40.456 72.5138 40.688C72.7938 40.912 72.9978 41.168 73.1258 41.456C73.2618 41.736 73.3378 41.96 73.3538 42.128C73.4018 41.88 73.5218 41.62 73.7138 41.348C73.9138 41.068 74.1778 40.832 74.5058 40.64C74.8338 40.44 75.2138 40.34 75.6458 40.34C76.3498 40.34 76.8738 40.632 77.2178 41.216C77.5698 41.8 77.7458 42.528 77.7458 43.4V52.28H78.8378V53H74.9858V52.28H75.9458V44.732C75.9458 44.036 75.9258 43.444 75.8858 42.956C75.8538 42.46 75.7698 42.084 75.6338 41.828C75.4978 41.564 75.2738 41.432 74.9618 41.432C74.6498 41.432 74.3898 41.568 74.1818 41.84C73.9818 42.112 73.8298 42.46 73.7258 42.884C73.6218 43.308 73.5618 43.748 73.5458 44.204V52.28H74.5298V53H70.8218V52.28H71.7698V44.732C71.7698 43.684 71.7178 42.872 71.6138 42.296C71.5178 41.72 71.2338 41.432 70.7618 41.432C70.4578 41.432 70.2058 41.572 70.0058 41.852C69.8138 42.132 69.6698 42.488 69.5738 42.92C69.4858 43.352 69.4378 43.804 69.4298 44.276V52.28H70.3658V53H66.5018ZM82.9318 53.252C82.3478 53.252 81.8478 53.08 81.4318 52.736C81.0158 52.384 80.6718 51.904 80.3998 51.296C80.1358 50.688 79.9398 49.992 79.8118 49.208C79.6918 48.416 79.6318 47.576 79.6318 46.688C79.6318 45.616 79.7198 44.68 79.8958 43.88C80.0718 43.08 80.3158 42.42 80.6278 41.9C80.9398 41.372 81.2878 40.98 81.6718 40.724C82.0638 40.46 82.4718 40.328 82.8958 40.328C83.3998 40.328 83.8358 40.48 84.2038 40.784C84.5718 41.08 84.8758 41.484 85.1158 41.996C85.3638 42.5 85.5478 43.076 85.6678 43.724C85.7878 44.364 85.8478 45.028 85.8478 45.716C85.8478 45.876 85.8438 46.036 85.8358 46.196C85.8358 46.356 85.8318 46.516 85.8238 46.676H81.2998V45.944H84.0718C84.0718 44.92 84.0358 44.044 83.9638 43.316C83.8918 42.58 83.7718 42.02 83.6038 41.636C83.4358 41.244 83.1998 41.048 82.8958 41.048C82.6078 41.048 82.3558 41.24 82.1398 41.624C81.9238 42.008 81.7558 42.592 81.6358 43.376C81.5238 44.16 81.4678 45.152 81.4678 46.352C81.4678 47.224 81.4878 48.032 81.5278 48.776C81.5758 49.512 81.6598 50.16 81.7798 50.72C81.8998 51.272 82.0678 51.7 82.2838 52.004C82.4998 52.308 82.7798 52.46 83.1238 52.46C83.6358 52.46 84.0358 52.316 84.3238 52.028C84.6118 51.732 84.8118 51.44 84.9238 51.152L85.5478 51.512C85.3958 51.968 85.0838 52.372 84.6118 52.724C84.1398 53.076 83.5798 53.252 82.9318 53.252Z" fill="#767676"/>
</svg>
